<svg width="800" height="800" viewBox="0 0 800 800" fill="none" xmlns="http://www.w3.org/2000/svg">
<path d="M631.4 185.2C587.679 164.743 541.428 150.204 493.866 141.967C487.933 152.667 481.033 167.1 476.233 178.533C425.713 170.834 374.319 170.834 323.8 178.533C318.502 166.04 312.549 153.834 305.966 141.967C258.363 150.218 212.076 164.791 168.333 185.3C81.2996 316.833 57.6996 445.1 69.4996 571.533C120.305 609.894 177.386 639.14 238.2 657.967C251.863 639.163 263.949 619.262 274.333 598.467C254.582 590.939 235.54 581.67 217.433 570.767C222.2 567.233 226.866 563.533 231.366 559.733C341.066 611.033 460.233 611.033 568.633 559.733C573.2 563.533 577.866 567.233 582.566 570.767C564.533 581.633 545.433 590.967 525.566 598.5C535.933 619.305 548.019 639.208 561.7 658C622.561 639.185 679.681 609.914 730.5 571.5C744.333 424.967 706.866 297.867 631.4 185.2ZM289.266 493.767C256.333 493.767 229.333 463.033 229.333 425.6C229.333 388.167 255.766 357.367 289.266 357.367C322.766 357.367 349.766 388.1 349.2 425.6C349.233 463.033 322.766 493.767 289.266 493.767ZM510.733 493.767C477.8 493.767 450.8 463.033 450.8 425.6C450.8 388.167 477.233 357.367 510.733 357.367C544.233 357.367 571.233 388.1 570.666 425.6C570.666 463.033 544.233 493.767 510.733 493.767Z" fill="#CEF26A"/>
</svg>
