<svg width="3061" height="896" viewBox="0 0 3061 896" fill="none" xmlns="http://www.w3.org/2000/svg">
<g filter="url(#filter0_d_9_69)">
<path d="M245.438 636V272.364H344.159V556.455H491.176V636H245.438ZM532.502 636V363.273H630.514V636H532.502ZM581.508 334.864C568.251 334.864 556.887 330.484 547.417 321.724C537.948 312.965 533.213 302.43 533.213 290.119C533.213 277.809 537.948 267.274 547.417 258.514C556.887 249.755 568.251 245.375 581.508 245.375C594.884 245.375 606.248 249.755 615.599 258.514C625.069 267.274 629.804 277.809 629.804 290.119C629.804 302.43 625.069 312.965 615.599 321.724C606.248 330.484 594.884 334.864 581.508 334.864ZM778.463 482.591V636H680.452V363.273H773.491V415.119H776.332C782.251 397.837 792.668 384.284 807.582 374.459C822.616 364.634 840.134 359.722 860.139 359.722C879.434 359.722 896.183 364.161 910.388 373.038C924.711 381.798 935.778 393.872 943.591 409.26C951.522 424.648 955.428 442.226 955.31 461.994V636H857.298V482.591C857.417 469.097 853.984 458.502 847 450.808C840.134 443.114 830.546 439.267 818.236 439.267C810.187 439.267 803.143 441.043 797.107 444.594C791.188 448.027 786.631 452.998 783.435 459.509C780.239 465.901 778.581 473.595 778.463 482.591ZM1180.54 516.682V363.273H1278.55V636H1185.51V584.153H1182.67C1176.75 601.554 1166.4 615.167 1151.6 624.991C1136.8 634.698 1119.22 639.551 1098.86 639.551C1079.81 639.551 1063.12 635.171 1048.79 626.412C1034.59 617.652 1023.52 605.579 1015.59 590.19C1007.78 574.802 1003.81 557.165 1003.69 537.278V363.273H1101.71V516.682C1101.82 530.176 1105.26 540.77 1112 548.464C1118.87 556.159 1128.46 560.006 1140.77 560.006C1148.94 560.006 1155.98 558.289 1161.9 554.857C1167.93 551.305 1172.55 546.334 1175.75 539.942C1179.06 533.431 1180.66 525.678 1180.54 516.682ZM1412.92 363.273L1452.69 447.79L1494.59 363.273H1591.9L1518.74 499.636L1595.45 636H1498.86L1452.69 549.352L1407.95 636H1309.94L1387.35 499.636L1314.91 363.273H1412.92ZM1625.32 636V272.364H1724.04V556.455H1871.06V636H1625.32ZM1988.38 640.261C1970.98 640.261 1955.59 637.42 1942.21 631.739C1928.96 625.938 1918.54 617.179 1910.96 605.46C1903.39 593.741 1899.6 578.827 1899.6 560.716C1899.6 545.801 1902.15 533.076 1907.24 522.541C1912.33 511.888 1919.43 503.188 1928.54 496.44C1937.66 489.693 1948.25 484.544 1960.33 480.993C1972.52 477.442 1985.66 475.134 1999.74 474.068C2015.01 472.884 2027.26 471.464 2036.5 469.807C2045.85 468.031 2052.6 465.605 2056.74 462.527C2060.88 459.331 2062.95 455.129 2062.95 449.92V449.21C2062.95 442.108 2060.23 436.663 2054.79 432.875C2049.34 429.087 2042.36 427.193 2033.83 427.193C2024.48 427.193 2016.85 429.265 2010.93 433.408C2005.13 437.432 2001.64 443.647 2000.45 452.051H1910.25C1911.44 435.479 1916.71 420.209 1926.06 406.241C1935.53 392.155 1949.32 380.91 1967.43 372.506C1985.54 363.983 2008.15 359.722 2035.25 359.722C2054.79 359.722 2072.3 362.03 2087.81 366.646C2103.32 371.144 2116.52 377.477 2127.41 385.645C2138.3 393.694 2146.58 403.164 2152.26 414.054C2158.06 424.826 2160.96 436.545 2160.96 449.21V636H2069.35V597.648H2067.21C2061.77 607.828 2055.14 616.054 2047.33 622.328C2039.63 628.602 2030.82 633.159 2020.87 636C2011.05 638.841 2000.22 640.261 1988.38 640.261ZM2020.34 578.472C2027.8 578.472 2034.78 576.933 2041.29 573.855C2047.92 570.777 2053.31 566.339 2057.45 560.538C2061.59 554.738 2063.66 547.695 2063.66 539.409V516.682C2061.06 517.747 2058.28 518.753 2055.32 519.7C2052.48 520.647 2049.4 521.535 2046.09 522.364C2042.89 523.192 2039.46 523.962 2035.79 524.672C2032.24 525.382 2028.51 526.033 2024.6 526.625C2017.03 527.809 2010.81 529.762 2005.96 532.484C2001.22 535.089 1997.67 538.344 1995.3 542.25C1993.06 546.038 1991.93 550.299 1991.93 555.034C1991.93 562.61 1994.59 568.41 1999.92 572.435C2005.25 576.459 2012.05 578.472 2020.34 578.472ZM2305.81 482.591V636H2207.8V363.273H2300.84V415.119H2303.68C2309.59 397.837 2320.01 384.284 2334.93 374.459C2349.96 364.634 2367.48 359.722 2387.48 359.722C2406.78 359.722 2423.53 364.161 2437.73 373.038C2452.05 381.798 2463.12 393.872 2470.93 409.26C2478.87 424.648 2482.77 442.226 2482.65 461.994V636H2384.64V482.591C2384.76 469.097 2381.33 458.502 2374.34 450.808C2367.48 443.114 2357.89 439.267 2345.58 439.267C2337.53 439.267 2330.49 441.043 2324.45 444.594C2318.53 448.027 2313.97 452.998 2310.78 459.509C2307.58 465.901 2305.93 473.595 2305.81 482.591ZM2629.76 639.551C2610.35 639.551 2592.47 634.461 2576.14 624.281C2559.92 614.101 2546.9 598.654 2537.07 577.939C2527.37 557.224 2522.51 531.123 2522.51 499.636C2522.51 466.729 2527.6 439.977 2537.78 419.381C2548.08 398.784 2561.34 383.692 2577.56 374.104C2593.89 364.516 2611.06 359.722 2629.05 359.722C2642.54 359.722 2654.38 362.089 2664.56 366.824C2674.74 371.44 2683.26 377.655 2690.13 385.467C2696.99 393.161 2702.2 401.625 2705.75 410.858H2707.17V272.364H2805.19V636H2707.88V591.256H2705.75C2701.97 600.489 2696.52 608.775 2689.42 616.114C2682.43 623.334 2673.91 629.075 2663.85 633.337C2653.91 637.48 2642.54 639.551 2629.76 639.551ZM2665.98 564.267C2674.98 564.267 2682.67 561.663 2689.06 556.455C2695.57 551.128 2700.55 543.67 2703.98 534.082C2707.53 524.376 2709.3 512.894 2709.3 499.636C2709.3 486.142 2707.53 474.601 2703.98 465.013C2700.55 455.306 2695.57 447.908 2689.06 442.818C2682.67 437.61 2674.98 435.006 2665.98 435.006C2656.98 435.006 2649.29 437.61 2642.9 442.818C2636.62 447.908 2631.77 455.306 2628.34 465.013C2625.02 474.601 2623.37 486.142 2623.37 499.636C2623.37 513.131 2625.02 524.731 2628.34 534.438C2631.77 544.026 2636.62 551.424 2642.9 556.632C2649.29 561.722 2656.98 564.267 2665.98 564.267Z" fill="url(#paint0_linear_9_69)"/>
</g>
<defs>
<filter id="filter0_d_9_69" x="0.4375" y="0.375" width="3059.75" height="894.886" filterUnits="userSpaceOnUse" color-interpolation-filters="sRGB">
<feFlood flood-opacity="0" result="BackgroundImageFix"/>
<feColorMatrix in="SourceAlpha" type="matrix" values="0 0 0 0 0 0 0 0 0 0 0 0 0 0 0 0 0 0 127 0" result="hardAlpha"/>
<feOffset dx="5" dy="5"/>
<feGaussianBlur stdDeviation="125"/>
<feComposite in2="hardAlpha" operator="out"/>
<feColorMatrix type="matrix" values="0 0 0 0 0.952941 0 0 0 0 0.913725 0 0 0 0 0.372549 0 0 0 0.35 0"/>
<feBlend mode="normal" in2="BackgroundImageFix" result="effect1_dropShadow_9_69"/>
<feBlend mode="normal" in="SourceGraphic" in2="effect1_dropShadow_9_69" result="shape"/>
</filter>
<linearGradient id="paint0_linear_9_69" x1="1525.5" y1="152" x2="1445.73" y2="956.489" gradientUnits="userSpaceOnUse">
<stop stop-color="#FEF970"/>
<stop offset="1" stop-color="#D4BB2D"/>
</linearGradient>
</defs>
</svg>
